<?xml version="1.0" encoding="UTF-8" standalone="no"?>
<!-- Created with Inkscape (http://www.inkscape.org/) -->

<svg
   version="1.1"
   id="svg2"
   width="316"
   height="245.60001"
   viewBox="0 0 316 245.60001"
   sodipodi:docname="APC Solar Revision 8.svg"
   inkscape:version="1.2.1 (9c6d41e410, 2022-07-14)"
   xmlns:inkscape="http://www.inkscape.org/namespaces/inkscape"
   xmlns:sodipodi="http://sodipodi.sourceforge.net/DTD/sodipodi-0.dtd"
   xmlns="http://www.w3.org/2000/svg"
   xmlns:svg="http://www.w3.org/2000/svg">
  <defs
     id="defs6">
    <clipPath
       clipPathUnits="userSpaceOnUse"
       id="clipPath1831">
      <ellipse
         style="opacity:0.05;fill:#ffffff;stroke-width:1.19835"
         id="ellipse1833"
         cx="156.38184"
         cy="113.10272"
         rx="105.83075"
         ry="102.53381" />
    </clipPath>
    <clipPath
       clipPathUnits="userSpaceOnUse"
       id="clipPath1835">
      <ellipse
         style="opacity:0.05;fill:#ffffff;stroke-width:1.19835"
         id="ellipse1837"
         cx="156.38184"
         cy="113.10272"
         rx="105.83075"
         ry="102.53381" />
    </clipPath>
    <clipPath
       clipPathUnits="userSpaceOnUse"
       id="clipPath1839">
      <ellipse
         style="opacity:0.05;fill:#ffffff;stroke-width:1.19835"
         id="ellipse1841"
         cx="156.38184"
         cy="113.10272"
         rx="105.83075"
         ry="102.53381" />
    </clipPath>
  </defs>
  <sodipodi:namedview
     id="namedview4"
     pagecolor="#ffffff"
     bordercolor="#000000"
     borderopacity="0.25"
     inkscape:showpageshadow="2"
     inkscape:pageopacity="0.0"
     inkscape:pagecheckerboard="0"
     inkscape:deskcolor="#d1d1d1"
     showgrid="false"
     inkscape:zoom="2"
     inkscape:cx="172.5"
     inkscape:cy="162.25"
     inkscape:window-width="1920"
     inkscape:window-height="1051"
     inkscape:window-x="-9"
     inkscape:window-y="-9"
     inkscape:window-maximized="1"
     inkscape:current-layer="g8" />
  <g
     inkscape:groupmode="layer"
     inkscape:label="Image"
     id="g8">
    <g
       id="g488"
       transform="translate(-310.5,-139.5)">
      <g
         id="g300"
         transform="translate(299,144)">
        <path
           style="display:inline;fill:#ffffff;stroke-width:0.8"
           d="M 0,122.80001 V 0 h 158 158 v 122.80001 122.8 H 158 0 Z m 177.47829,73.73864 c 6.96907,-10.21006 4.15559,-6.34118 3.13906,-6.36489 -0.7416,-0.0173 -6.78768,-0.36243 -18.1635,-2.85109 l -19.82032,-2.37772 -4.12515,5.86011 -3.41803,5.41817 6.90872,5.97888 c 3.81615,3.30253 7.28322,5.0706 9.10353,7.96126 l 5.90711,3.57336 5.33891,2.08069 3.74792,-2.6039 z M 186,213.04377 c 11.43929,-2.82384 25.77404,-9.66991 35.38007,-16.897 2.73905,-2.06072 4.37033,-2.8849 4.38128,-3.12788 0.033,-0.73337 -32.03938,-4.05726 -32.69118,-3.38328 -0.8072,0.83468 -15.65596,24.52485 -15.65596,25.0855 0,0.52119 1.99852,-0.0513 8.58579,-1.67734 z m -55.6064,-27.32683 c 2.11458,-2.95842 2.50923,-1.46944 1.75712,-1.7047 -2.02022,-0.63192 -6.48035,-1.27825 -6.48035,-0.76897 0,0.28045 0.0104,-0.19813 1.6436,2.82561 3.30071,6.11105 -1.82101,6.50433 3.07963,-0.35194 z m 115.32589,-15.66737 c 2.55546,-3.93275 4.56064,-7.23608 4.45597,-7.34076 -0.59934,-0.59935 -36.59216,12.98685 -42.24551,-1.1993 -0.14261,-0.35785 -2.01215,4.1105 -5.69147,10.4905 -6.67583,11.57598 -5.71304,8.77208 -3.60793,9.01834 1.16022,0.13573 7.39226,1.6654 16.50259,3.432 l 16.42604,3.1852 4.757,-5.21777 c 2.61636,-2.86977 6.84784,-8.43547 9.40331,-12.36821 z m -51.98403,0.72001 c 3.80671,-6.64228 5.73687,-9.99093 5.58561,-10.14219 -0.15127,-0.15127 -6.34985,-0.98894 -17.33964,-1.86149 -15.34627,-1.21844 -17.82124,-2.34011 -18.57046,-1.61629 -1.64958,1.59366 -14.67941,18.97624 -14.3884,19.27525 0.20072,0.20624 29.52438,4.07263 37.82872,4.83332 0.51433,0.0471 3.07746,-3.84631 6.88417,-10.4886 z M 66.2757,171.40001 c -5.726894,-16.79624 2.610664,-30.84178 20.071003,-45.28447 3.260112,-2.69667 3.010656,-1.81354 3.010656,-1.92657 0,-0.11303 0.692387,0.22192 -3.106653,1.06843 -3.799048,0.84651 -15.168878,1.76287 -15.327518,1.60423 -0.15864,-0.15864 11.187515,-6.24228 16.355195,-7.68558 6.012336,-1.67919 10.55795,-2.9092 15.293187,-5.45754 4.07,-2.19034 6.42808,-1.38969 6.42852,-1.46172 4.3e-4,-0.072 -4.48048,0.18806 -14.71091,0.25396 l -23.638927,-1.82487 22.461359,-2.96085 c 9.647698,-1.27176 14.646368,-1.73255 18.166368,-2.06781 4.49922,-0.42853 4.86415,0.25848 3.73934,-0.19743 -0.88,-0.35669 -5.39129,-0.50954 -17.803262,-2.6083 -12.411968,-2.09878 -31.031049,-8.3452 -30.896804,-8.479448 0.134246,-0.13424 19.64685,1.80956 32.12621,2.915168 25.176036,2.230468 19.577616,2.655831 17.773856,1.637851 -0.66,-0.372482 -4.37314,-1.266659 -15.05732,-5.119947 C 90.47581,89.951826 72.256625,80.4552 72.448209,80.263616 c 0.26704,-0.267048 38.208331,9.378652 44.396841,11.30158 2.48819,0.773144 4.86009,2.749116 -12.47448,-7.446109 -9.805728,-5.767178 -26.620768,-16.896406 -26.455704,-17.061472 0.165064,-0.165067 19.89731,7.281999 30.993824,12.551916 11.09652,5.269921 11.84021,6.983912 11.69943,6.617664 -0.14078,-0.366248 -2.59783,-0.770956 -11.61783,-8.569498 -9.019999,-7.798541 -19.149707,-20.047868 -19.809707,-20.738913 -1.511112,-1.582197 11.326157,4.945074 28.643567,17.552107 7.43438,5.412208 5.8998,4.552908 6.09651,4.356204 0.1967,-0.196705 -2.23157,0.555753 -8.96117,-7.726503 -6.72959,-8.282256 -16.071744,-26.047813 -17.627464,-28.027813 -2.57036,-3.271348 23.374124,21.577157 32.714824,31.696911 2.13842,2.316784 -1.06784,-0.731266 -0.8593,-0.93981 0.31846,-0.318456 -15.75601,-24.307304 -19.53061,-30.536985 -0.6665,-1.1 -2.33212,-14.367922 -1.86488,-13.927922 0.46724,0.44 14.33984,20.572503 21.21332,30.911028 6.87347,10.338526 6.75198,10.447159 6.75198,9.856087 0,-0.591065 -2.34565,-1.703761 -5.86074,-12.519465 -3.51509,-10.815702 -9.12007,-40.358827 -8.99855,-40.480351 0.12153,-0.121523 12.61003,29.890398 17.16528,40.441819 4.55524,10.55142 3.91639,10.203629 4.08987,10.030151 0.17347,-0.173478 -0.70767,0.328446 -2.06614,-10.119754 -1.35846,-10.448202 -2.69665,-34.503133 -2.54164,-34.658146 0.15501,-0.155015 7.45504,21.579994 9.5244,30.475034 2.06936,8.895042 2.3184,14.165656 2.82206,15.925656 0.89033,3.111191 -0.65885,0.931584 -0.0847,-1.1251 0.32478,-1.163466 0.69586,-27.667583 1.04069,-37.724118 0.70412,-20.5343416 3.93324,1.730865 4.73802,22.955197 0.60878,16.054996 0.41532,10.989434 1.29794,9.317766 0.32206,-0.609964 -1.20433,1.07682 1.1453,-9.431274 2.34963,-10.508095 9.52307,-31.813644 9.67522,-31.357195 0.15215,0.456449 0.0422,23.415868 -1.32451,33.62807 -1.36676,10.212202 -3.1709,14.348302 -3.03691,15.241027 0.13572,0.904362 -1.28216,-1.274711 3.35958,-12.260712 4.582,-10.844612 17.18582,-34.285483 17.31349,-34.157812 0.12767,0.12767 -5.54221,24.241555 -9.03474,35.005217 -3.49253,10.763662 -4.23457,9.841165 -4.24172,10.265451 -0.0258,1.528667 -5.43477,6.018379 5.39156,-10.904867 6.05186,-9.46 15.8816,-22.156193 16.33433,-22.596194 0.75678,-0.735504 156.38148,-149.400018 -19.85794,42.317515 l 5.29926,-5.76466 2.70289,-3.845748 c 3.55972,-5.06485 24.14048,-22.838213 29.16803,-28.118214 9.95028,-10.449899 -3.97497,7.659914 -22.15312,30.578087 -6.75188,8.512458 -5.23535,7.580363 -5.05628,7.75942 0.17906,0.179064 -3.49162,1.209219 3.51019,-3.976516 23.77239,-17.60647 38.22244,-25.179305 37.8013,-24.504106 -0.23151,0.371164 -17.88546,17.325951 -27.34768,25.685951 -9.46221,8.36 -10.55208,8.152584 -10.41615,8.289528 0.13593,0.136944 -2.91276,1.379309 2.08363,-1.128276 12.26192,-6.154005 39.31798,-17.699529 39.31798,-17.399205 0,0.133372 -12.78054,9.697622 -21.81136,15.096167 -9.03083,5.398544 -11.67695,6.338151 -11.49784,6.517263 1.00151,1.00152 11.51451,-2.301394 20.87999,-5.042467 5.92718,-1.734752 20.26885,-2.05884 20.41917,-1.90852 0.15032,0.15032 -3.03521,2.886052 -7.04186,3.754148 l -7.75711,2.77373 6.83604,-0.730375 c 7.21901,-0.771292 15.9518,-1.513495 21.84454,-1.063975 5.89274,0.44952 9.50891,2.815213 9.67829,2.645837 C 259.63563,87.449824 255.84305,74.0565 253.17346,68.751331 246.35322,55.197771 233.21617,39.389318 221.2,30.276118 192.13395,8.2320891 152.41336,2.7244057 117.44192,15.888955 87.749048,27.066457 62.228644,54.929033 53.220494,86.004404 c -7.623468,26.298636 -5.062227,55.759956 6.879555,79.133806 3.289609,6.4388 10.264109,17.56727 10.720144,17.10498 0.131945,-0.13375 -3.494327,-7.76318 -4.544493,-10.84318 z M 169.55225,33.579782 c 0.88734,0.287452 -2.07015,-9.783578 -1.81477,-9.145392 0.23109,0.5775 -0.59281,21.066489 -0.85859,21.332323 -0.26584,0.265833 -4.40513,-14.479981 -3.60217,-14.219863 z m -22.80309,132.001508 5.90711,-8.83674 -8.13715,-1.37148 c -6.20737,-1.04622 -13.85918,0.24096 -16.52955,-0.95424 l -4.41492,-0.37825 -1.15134,8.07568 c -0.84861,5.95222 -1.11009,10.3281 0.0245,11.46273 0.3972,0.3972 10.59578,0.18767 13.95445,2.15002 l 1.61131,0.3684 z m 108.28148,-13.38128 c 1.38719,-3.41 3.21904,-8.77103 4.07079,-11.9134 l 0.73613,-4.36963 -17.31253,-0.41159 c -9.97254,-0.23709 -17.76751,-0.49455 -18.1948,-0.50983 -0.63306,-0.0226 -10.07931,17.96737 -9.60657,18.25289 0.0782,0.0473 5.69828,0.36789 16.91828,1.36074 11.22,0.99285 20.33925,-0.70906 20.58908,-0.64915 0.24983,0.0599 1.41244,1.64997 2.79962,-1.76003 z m -44.5262,-8.57678 4.02642,-8.83223 -6.00477,-0.50856 c -4.70387,-0.39838 -12.99615,-0.0999 -18.92609,-0.52906 l -10.3,-0.74539 -6.50699,8.17726 c -5.12375,6.43895 -6.544,8.94037 -5.75099,9.10276 1.0104,0.20692 31.82648,2.42977 36.22473,2.69021 1.27156,0.0753 3.24871,-0.60489 7.23769,-9.35499 z m -45.00998,-2.99393 c 3.65444,-5.08451 6.15168,-8.36232 5.96955,-8.54446 -0.18214,-0.18212 -6.66694,-0.20762 -15.61321,-1.01317 l -16.2508,0.12772 -4.42051,5.00031 c -2.88392,3.26217 -5.71154,6.65344 -7.10913,8.20854 l 0.13981,1.35208 11.74587,1.46031 c 22.20639,2.76083 17.8221,4.14451 25.53842,-6.59133 z m 96.38716,-14.42929 c 0.27746,-2.31 -1.39621,-6.84034 -0.95732,-10.00001 l 0.47575,-3.425 -5.6625,-1.41125 c -3.63,-0.002 -9.40856,0.37422 -12.9375,0.47751 l -4.27868,0.12524 -5.89402,7.08144 c -3.8287,4.60003 -3.99868,8.09288 -3.84277,8.24879 0.23196,0.23197 21.44032,-11.6472 29.55404,1.48063 l 0.88232,0.4037 2.66073,-2.98125 z m -36.1575,-7.05846 1.87697,-7.55056 -3.47697,-0.60367 c -3.7625,-0.65324 -11.89505,-0.27923 -17.88698,-0.95355 l -9.90221,0.62241 -6.52033,7.32062 -4.84095,7.58579 6.08389,0.58548 c 3.17936,0.30596 27.03171,1.5401 28.01213,1.381 0.44,-0.0714 -1.11086,-9.73793 4.62152,-8.74105 z m -43.77781,-2.12519 c 3.55832,-4.81584 5.40369,-7.80349 5.40369,-8.08746 0,-0.28398 -1.26,0.1074 -5.55,0.25864 -7.6209,0.26865 -7.46162,0.0607 -15.66875,4.24145 -4.62,2.35344 -11.28145,5.83211 -14.60719,8.275 l -3.73843,2.74602 4.19468,0.35507 c 3.88227,0.32863 10.91894,0.43879 15.816,0.85 l 7.84006,-0.0988 z M 260.63992,101.125 c -1.06832,-9.959116 -0.11835,-8.989112 -5.7579,-8.976576 -7.45493,0.01656 -6.9507,-0.377388 -10.80828,6.303884 -1.92774,3.338842 -3.0902,5.296072 -3.23253,5.648032 -0.14234,0.35195 3.28766,0.59567 9.15,0.73259 5.86233,0.13691 10.38373,0.42129 10.84964,0.51738 0.57464,0.11851 0.19203,-0.56205 -0.20093,-4.22531 z m -24.12878,-2.899144 2.6049,-4.81607 -0.6549,0.158928 c -7.76287,1.883855 -19.58744,3.18458 -26.88614,4.824836 -6.91766,1.554632 -7.55507,3.70522 -9.87111,4.46898 l -0.81487,0.26872 4.78987,0.27123 c 3.05246,0.17285 9.8901,0.19636 16.47736,0.6116 l 10.4375,0.27785 z m -46.96179,5.033004 c 0.37004,-0.96431 2.9596,-0.82447 1.22309,-0.41546 -3.32941,0.78423 -4.05012,0.25035 -1.22428,0.25035 1.47047,0 -0.27472,0.88412 0.001,0.16511 z"
           id="path316"
           clip-path="url(#clipPath1839)"
           transform="translate(2.6654759,2.119229)"
           sodipodi:nodetypes="cccccccccssscccsscccsssssssssssssssssscsssssssssssssssssccssssssssssssssssssssssssssssssssssssssssssssssssscssssssssssssssscsssssssssssssssccsscsssccsscssssssscsscssssssscsscsscsccscssscccccsscccssscssssscsscssssssssccssscssccsssss" />
        <path
           style="display:inline;fill:#ffcc00;stroke-width:0.8"
           d="m 66.346203,175.00001 c -3.889119,-6.20244 -10.428949,-20.76885 -12.301682,-27.4 C 45.948756,118.93374 49.284348,88.934804 63.303049,64.332618 83.268416,29.294292 117.18346,9.39379 156.8,9.4709388 c 17.71842,0.034504 30.65781,3.0466002 46.84142,10.9039892 10.85336,5.269469 20.21395,12.058686 29.15858,21.148655 6.73016,6.839516 15.3125,18.769137 19.62305,27.27642 2.28944,4.518422 7.72104,19.322577 7.25894,19.784673 -0.142,0.142 -7.41853,-0.07128 -16.17009,-0.474 -8.75154,-0.402704 -18.7919,-0.546952 -22.3119,-0.32056 -3.52,0.226392 -6.20634,0.202576 -5.96965,-0.05296 0.2367,-0.255504 3.6567,-1.718496 7.6,-3.251089 3.94331,-1.5326 6.71669,-2.808944 6.16307,-2.83632 -0.55362,-0.02736 -6.67362,1.528496 -13.6,3.457504 C 204.72818,88.077556 190.4,90.49522 190.4,89.32454 c 0,-0.188208 2.61,-1.885864 5.8,-3.772569 14.23475,-8.419066 27.86998,-16.948658 27.57127,-17.247364 -0.17937,-0.179374 -6.05129,2.422079 -13.0487,5.781006 -27.06776,12.993175 -29.6614,14.130103 -27.52257,12.064583 1.51966,-1.467577 31.01316,-27.666536 32.73334,-29.076896 0.18332,-0.150314 0.14622,-0.460402 -0.0825,-0.689087 -0.31078,-0.310783 -28.6899,19.812089 -38.23422,27.110862 -0.65084,0.497712 0.52743,-1.255072 2.61837,-3.895072 C 197.37417,57.960386 205.6,47.174656 205.6,46.341415 c 0,-0.539506 -4.40062,3.662969 -9.77915,9.338834 -5.37854,5.675864 -12.61853,13.199754 -16.08887,16.719754 l -6.30972,6.4 5.60014,-10.8 c 5.19464,-10.018006 14.6039,-28.421717 15.23584,-29.800001 0.1513,-0.33 -0.0585,-0.6 -0.46615,-0.6 -0.40769,0 -6.25092,8.466773 -12.98495,18.815052 -6.73404,10.348279 -12.37754,18.681219 -12.54112,18.517643 -0.16357,-0.163576 2.73095,-9.80035 6.43227,-21.415052 3.70132,-11.614704 6.54807,-21.418489 6.32611,-21.78619 -0.22195,-0.367701 -4.48364,8.942692 -9.47041,20.689763 -4.98677,11.74707 -9.27021,21.561667 -9.51875,21.810214 -0.24855,0.248547 -0.25006,-0.601846 -0.003,-1.889763 0.24656,-1.287917 1.6529,-11.701667 3.12505,-23.141667 2.64014,-20.516434 2.69588,-27.69098 0.12632,-16.259714 -6.84458,30.449579 -8.91843,38.875793 -9.36173,38.03736 -0.2843,-0.537705 -0.96611,-10.697646 -1.51514,-22.577646 -0.94336,-20.412533 -1.14812,-22.741264 -1.92851,-21.933335 -0.30825,0.319126 -1.99267,34.005762 -2.15713,43.14013 l -0.0791,4.393206 -1.08881,-3.464563 c -0.59885,-1.90551 -2.91491,-11.26551 -5.14682,-20.800001 -2.2319,-9.534491 -4.28312,-17.875438 -4.55827,-18.535438 -0.27514,-0.66 -0.4277,-1.65 -0.33901,-2.2 0.0887,-0.55 -0.23085,-1 -0.71008,-1 -0.54061,0 -0.7031,0.986828 -0.4281,2.6 1.14554,6.719957 5.27663,40.057947 5.04858,40.742121 -0.14183,0.425471 -4.0167,-7.892451 -8.61083,-18.484269 -4.59413,-10.591818 -8.6567,-19.257852 -9.02793,-19.257852 -0.37124,0 -0.46785,-0.335124 -0.21471,-0.744721 0.25315,-0.409597 0.0944,-0.970843 -0.35278,-1.247214 C 124.36587,31.331696 124,31.342512 124,31.632102 c 0,0.393297 11.38004,35.906687 14.21742,44.367901 0.22132,0.66 -5.46152,-7.44 -12.62852,-18.000001 C 110.55329,35.846278 112.12019,38.01314 111.549,38.584334 c -0.24805,0.24805 4.01842,8.67805 9.48103,18.733335 5.46262,10.055283 10.36004,19.182334 10.88316,20.282334 0.52312,1.1 -6.42433,-5.54901 -15.43878,-14.77558 -9.01446,-9.226569 -16.584106,-16.58139 -16.82145,-16.344046 -0.237344,0.237344 6.47893,9.046356 14.92505,19.575581 8.89501,11.088835 14.19219,18.267029 12.58929,17.059717 -10.08985,-7.599676 -36.92938,-26.420257 -37.237636,-26.112 -0.206152,0.206148 7.565504,7.314496 17.270336,15.796328 9.70483,8.481832 17.51227,15.554401 17.34986,15.716817 -0.16242,0.162416 -8.36258,-3.530393 -18.22259,-8.206249 -31.50226,-14.939128 -31.869411,-14.777732 -3.93772,1.730992 11.00511,6.504449 19.88632,11.949233 19.73603,12.099529 -0.1503,0.150296 -10.4818,-2.418192 -22.958916,-5.707752 -12.477104,-3.289561 -22.797656,-5.869009 -22.934559,-5.732105 -0.136903,0.136896 9.830007,3.995129 22.148695,8.573841 12.31868,4.578712 22.04047,8.445592 21.60398,8.593072 -0.4365,0.147482 -10.49542,-0.51204 -22.353164,-1.4656 C 85.773872,97.448988 75.441186,96.7903 74.67009,96.938804 73.898994,97.0873 82.972776,98.94838 94.834048,101.07452 106.69532,103.20068 117.3,105.16206 118.4,105.43316 c 1.1,0.2711 -8.8,1.63602 -22,3.03316 l -24,2.54025 19.2,0.10267 19.2,0.10266 -6.18152,3.53106 c -4.13186,2.36023 -10.051592,4.67344 -17.853128,6.97634 -6.419384,1.89491 -11.359868,3.5492 -10.978858,3.6762 0.381009,0.12701 4.09336,-0.46658 8.249666,-1.31908 4.156312,-0.85249 7.606776,-1.48844 7.667696,-1.41321 0.06088,0.0752 -2.629856,2.48664 -5.979512,5.35867 -3.349648,2.87203 -7.468249,7.01203 -9.152438,9.2 -8.708796,11.3138 -12.071265,24.70722 -9.089096,36.20378 0.595546,2.29589 0.950255,4.17435 0.788242,4.17435 -0.162014,0 -1.028195,-1.17 -1.924849,-2.6 z"
           id="path308"
           clip-path="url(#clipPath1835)"
           transform="translate(2.6654759,2.119229)" />
        <path
           style="display:inline;fill:#005279;stroke-width:0.8"
           d="m 156.7861,215.29217 c -1.54765,-0.31889 -5.08432,-2.1216 -7.85928,-4.00603 C 143.48631,207.59155 132.8,197.88932 132.8,196.64439 c 0,-0.41899 2.03292,-3.60125 4.51759,-7.07167 l 4.51759,-6.30986 3.28241,0.40343 c 1.80533,0.22189 11.32753,1.26286 21.16044,2.31328 9.83292,1.05041 18.04759,2.07939 18.25481,2.28661 0.20722,0.20722 -3.09886,6.3521 -7.34685,13.65529 -7.51176,12.91432 -7.79577,13.27854 -10.3548,13.27854 -1.44715,0 -3.66619,0.15119 -4.93119,0.33597 -1.265,0.18479 -3.56626,0.075 -5.1139,-0.24381 z m 21.85262,-4.33411 c 1.06786,-1.84693 4.37854,-7.58805 7.35705,-12.75805 4.75757,-8.25804 5.6699,-9.39739 7.50985,-9.37847 3.754,0.0386 30.54012,2.95754 30.95594,3.37336 0.74763,0.74763 -10.39362,8.41018 -17.66156,12.14699 -7.18311,3.69319 -21.26915,8.64842 -27.05143,9.51625 l -3.05143,0.45796 z m -53.03871,-24.67914 -2.62695,-4.92866 4.31347,0.51792 c 2.37241,0.28486 5.14584,0.52105 6.16318,0.52488 1.82196,0.007 1.81054,0.0615 -0.76157,3.64308 -4.11352,5.72798 -4.16364,5.72969 -7.08813,0.24278 z m 86.82193,-1.21763 c -9.22793,-1.07291 -16.91748,-2.09016 -17.0879,-2.26057 -0.31762,-0.31763 11.45854,-21.03387 12.68024,-22.30666 0.58714,-0.61169 26.12187,1.01035 37.7584,2.39851 l 3.77269,0.45006 -4.6838,6.92869 c -5.25196,7.76917 -13.30859,16.97778 -14.72869,16.83469 -0.51309,-0.0517 -8.48301,-0.97183 -17.71094,-2.04472 z M 165.6,180.06802 c -13.55697,-1.53092 -18.74328,-2.39703 -18.59662,-3.10564 0.36939,-1.78473 14.71074,-20.96272 15.66342,-20.94593 3.06324,0.054 38.36674,3.15044 38.60207,3.38576 0.15726,0.15726 -2.6594,5.3961 -6.25924,11.64186 -5.81393,10.08724 -6.77221,11.34426 -8.5774,11.25143 C 185.3145,182.23802 175.94,181.23565 165.6,180.06802 Z M 130.47236,176.307 c -4.95843,-0.61068 -8.59471,-1.44667 -8.98775,-2.06631 -1.55569,-2.4526 -5.8e-4,-19.19138 1.96563,-21.1576 0.38783,-0.38782 30.37422,2.08861 30.8412,2.54703 0.24406,0.2396 -13.60518,19.81269 -15.02601,21.2362 -0.25598,0.25647 -4.21287,0.005 -8.79307,-0.55932 z m 99.74326,-20.53249 -18.98436,-1.63622 1.48269,-2.46914 c 0.81548,-1.35803 3.54859,-6.01165 6.07355,-10.34138 l 4.59086,-7.87224 5.31082,0.45236 c 2.92095,0.24879 11.10629,0.67983 18.18965,0.95785 l 12.87883,0.50551 -1.76064,6.11438 c -2.90198,10.07801 -5.47581,15.69999 -7.2425,15.81974 -0.85498,0.0579 -10.09749,-0.63095 -20.5389,-1.53086 z m -46.85673,-3.7889 c -8.93262,-0.77064 -16.44556,-1.60561 -16.69544,-1.85548 -0.24987,-0.24988 2.40852,-4.34138 5.90753,-9.09223 l 6.36186,-8.63789 10.73358,0.19403 c 5.90347,0.10672 14.37204,0.40785 18.81906,0.66917 l 8.08548,0.47516 -5.68548,9.91672 c -5.61833,9.7996 -5.71855,9.91564 -8.48548,9.8242 -1.54,-0.0509 -10.1085,-0.72305 -19.04111,-1.49368 z m -44.11168,-3.6902 c -6.79403,-0.62388 -12.50331,-1.28484 -12.68727,-1.4688 -0.50476,-0.50476 2.78176,-4.98908 8.12252,-11.08284 l 4.78202,-5.45622 12.86776,0.48686 c 7.07726,0.26778 14.37538,0.67178 16.21802,0.89779 l 3.35026,0.41093 -6.21642,8.55844 -6.2164,8.55844 -3.93385,0.11486 c -2.16362,0.0632 -9.4926,-0.39558 -16.28664,-1.01946 z M 238.4,128.76025 c -6.38,-0.30756 -11.66244,-0.60443 -11.73876,-0.65972 -0.0763,-0.0553 2.08367,-4.05099 4.8,-8.87934 l 4.93876,-8.77881 4.8,-0.017 c 2.64,-0.009 8.31,0.21538 12.6,0.49947 l 7.8,0.51652 -0.009,6.07934 c -0.005,3.34364 -0.23194,7.42934 -0.50467,9.07934 l -0.49587,3 -5.29532,-0.14028 C 252.3829,129.38257 244.78,129.06781 238.4,128.76025 Z m -39.48022,-1.62957 c -7.85412,-0.34345 -14.46308,-0.80731 -14.68656,-1.03079 -0.2235,-0.22349 2.2426,-4.0786 5.48021,-8.56691 l 5.88657,-8.16055 13.6,0.13009 c 16.2725,0.15567 20.67078,0.63792 20.07109,2.2007 -0.23367,0.60894 -2.43626,4.52482 -4.89464,8.70198 l -4.46979,7.59481 -3.35332,-0.12244 c -1.84434,-0.0674 -9.77944,-0.40345 -17.63356,-0.74689 z m -37.58662,-1.59351 c -7.40677,-0.3323 -13.63376,-0.7711 -13.83777,-0.97511 -0.59491,-0.59491 9.5489,-6.72987 18.89771,-11.4293 8.44218,-4.24369 8.76137,-4.33276 15.52727,-4.33276 h 6.90789 l -6.24067,8.54218 c -3.43237,4.6982 -6.58873,8.6 -7.01413,8.67067 -0.4254,0.0706 -6.83354,-0.14339 -14.2403,-0.47568 z m 86.08435,-20.6903 -7.38249,-0.44687 3.55634,-5.999996 3.55634,-6 6.03724,-0.4 c 6.64972,-0.440584 6.3288,-0.67204 7.20992,5.2 0.2641,1.76 0.65961,4.369996 0.87891,5.799996 l 0.39873,2.6 -3.43625,-0.15313 c -1.88994,-0.0842 -6.75837,-0.35422 -10.81874,-0.6 z m -31.16363,-0.80032 c -8.44037,-0.25967 -15.55258,-0.67858 -15.8049,-0.93091 -1.1981,-1.19809 3.44625,-3.505988 10.47463,-5.205124 7.08493,-1.7128 28.34134,-5.312224 28.78013,-4.873432 0.4932,0.493192 -6.54272,11.744326 -7.268,11.622256 -0.45966,-0.0774 -7.74149,-0.35312 -16.18186,-0.61279 z"
           id="path302"
           clip-path="url(#clipPath1831)"
           transform="translate(2.6654759,2.119229)" />
      </g>
      <path
         style="opacity:0.05;fill:#ffffff;stroke-width:0.104552"
         d="m 491.9013,250.08334 c -0.5849,-0.0538 -1.0808,-0.24322 -1.0808,-0.41282 0,-0.46367 1.37082,-1.10857 3.22617,-1.51775 0.91564,-0.20193 1.37824,-0.22408 1.52912,-0.0732 0.16914,0.16914 0.12321,0.63784 -0.0941,0.96033 -0.55422,0.82241 -1.85671,1.20199 -3.58037,1.04343 z"
         id="path373" />
      <path
         style="opacity:0.05;fill:#ffffff;stroke-width:0.104552"
         d="m 491.9013,250.08334 c -0.5849,-0.0538 -1.0808,-0.24322 -1.0808,-0.41282 0,-0.46367 -1.72293,0.29768 0.13242,-0.1115 0.91564,-0.20193 2.12824,-0.28658 2.27912,-0.1357 0.16914,0.16914 -1.18929,-0.36216 -1.4066,-0.0397 -0.55422,0.82241 1.79954,0.85824 0.0759,0.69968 z"
         id="path375"
         sodipodi:nodetypes="sssssss" />
      <path
         style="opacity:0.05;fill:#ffffff;stroke-width:0.013069"
         d="m 485.69397,261.5071 c 0,-0.005 3.22882,-4.42897 4.70826,-6.45147 l 0.097,-0.13259 -4.26707,-0.003 c -4.70642,-0.004 -5.33971,0.002 -6.37181,0.0531 -0.32548,0.0163 -0.9279,0.0606 -0.98056,0.0722 l -0.0249,0.005 v -0.28574 -0.28575 l 0.15192,-0.0127 c 0.51572,-0.0432 1.22123,-0.089 1.8092,-0.1174 0.18838,-0.009 0.39471,-0.0193 0.45851,-0.0226 0.5737,-0.0296 2.70232,-0.10419 3.69574,-0.12949 0.74245,-0.0189 3.4645,-0.0189 3.983,-7e-5 1.37513,0.0501 2.08951,0.12443 2.27324,0.23657 0.0525,0.032 0.0482,0.0706 -0.0232,0.20921 -0.32374,0.62826 -1.98569,3.04268 -4.24281,6.16382 -0.23071,0.31903 -0.43978,0.60851 -0.46459,0.64329 l -0.0451,0.0632 -0.37842,3e-4 c -0.20812,1.6e-4 -0.37841,-0.003 -0.37841,-0.006 z"
         id="path377" />
      <path
         style="opacity:0.05;fill:#ffffff;stroke-width:0.013069"
         d="m 485.69397,261.5071 c 0,-0.005 3.22882,-4.42897 4.70826,-6.45147 l 0.097,-0.13259 -4.26707,-0.003 c -4.70642,-0.004 -5.33971,0.002 -6.37181,0.0531 -0.32548,0.0163 -0.9279,0.0606 -0.98056,0.0722 l -0.0249,0.005 v -0.28747 -0.28747 l 0.0414,-8.2e-4 c 0.0228,-4.5e-4 0.0514,-0.002 0.0635,-0.004 0.0239,-0.004 0.0487,-0.006 0.49719,-0.0389 0.51239,-0.0379 0.83199,-0.0573 1.35897,-0.0826 0.18838,-0.009 0.39222,-0.0191 0.45299,-0.0224 0.0966,-0.005 0.60883,-0.0261 1.08276,-0.0441 2.27664,-0.0867 2.91118,-0.0998 4.82269,-0.0992 1.53427,4.8e-4 2.12796,0.0142 2.87262,0.0663 0.65031,0.0455 1.05659,0.10885 1.17943,0.18383 0.0288,0.0176 0.0359,0.0291 0.0359,0.0582 0,0.0437 -0.0807,0.20375 -0.21199,0.42045 -0.32436,0.5353 -0.96671,1.48941 -1.89679,2.81737 -0.47523,0.67855 -0.46636,0.66598 -0.92624,1.3115 -0.17189,0.24126 -0.32623,0.45832 -0.34299,0.48234 -0.0521,0.0747 -0.48603,0.67726 -0.92407,1.28318 -0.23064,0.31903 -0.43964,0.60851 -0.46445,0.64329 l -0.0451,0.0632 -0.37842,3e-4 c -0.20812,1.6e-4 -0.37841,-0.003 -0.37841,-0.006 z"
         id="path379" />
      <path
         style="opacity:0.05;fill:#ffffff;stroke-width:0.0184824"
         d="m 483.05869,222.98047 c 0.0251,-0.0322 0.37934,-0.4875 0.78713,-1.01172 1.63521,-2.10207 2.79115,-3.56954 5.94474,-7.54687 4.96512,-6.26206 8.53516,-10.78838 9.73288,-12.33997 l 0.29687,-0.38459 0.43445,-0.001 0.43444,-10e-4 -0.0999,0.12891 c -0.0549,0.0709 -0.30982,0.40312 -0.56641,0.73828 -3.3579,4.38601 -9.65927,12.44547 -15.72579,20.11328 l -0.28741,0.36328 h -0.49836 -0.49836 z"
         id="path381" />
    </g>
  </g>
</svg>
